<svg xmlns="http://www.w3.org/2000/svg" xmlns:xlink="http://www.w3.org/1999/xlink" width="1280" zoomAndPan="magnify" viewBox="0 0 960 599.999999" height="800" preserveAspectRatio="xMidYMid meet" version="1.0"><defs><clipPath id="053dc01b04"><path d="M 480 115.183594 L 960 115.183594 L 960 600 L 480 600 Z M 480 115.183594 " clip-rule="nonzero"/></clipPath></defs><rect x="-96" width="1152" fill="#ffffff" y="-60" height="719.999999" fill-opacity="1"/><rect x="-96" width="1152" fill="#ffffff" y="-60" height="719.999999" fill-opacity="1"/><rect x="-96" width="1152" fill="#ff914d" y="-60" height="719.999999" fill-opacity="1"/><path fill="#fdfbfb" d="M 924.71875 190.539062 C 924.78125 190.492188 924.851562 190.449219 924.914062 190.402344 C 924.914062 190.402344 924.839844 190.449219 924.71875 190.539062 " fill-opacity="1" fill-rule="nonzero"/><path fill="#fdfbfb" d="M 754.472656 219.207031 C 754.609375 219.117188 754.738281 219.019531 754.875 218.929688 C 754.875 218.929688 754.734375 219.019531 754.472656 219.207031 " fill-opacity="1" fill-rule="nonzero"/><g clip-path="url(#053dc01b04)"><path fill="#fdfbfb" d="M 957.40625 290.425781 C 956.132812 290.609375 954.851562 290.796875 953.582031 290.929688 C 901.9375 296.453125 895.113281 255.484375 895.113281 255.484375 C 895.113281 255.484375 913.601562 278.796875 937.449219 282.078125 C 937.449219 282.078125 917.394531 276.921875 899.269531 254.179688 C 962 235.773438 972.417969 297.59375 972.417969 297.59375 C 966.210938 289.808594 959.292969 290.164062 957.40625 290.425781 Z M 873.214844 416.695312 C 871.660156 418.453125 868.972656 418.609375 867.230469 417.042969 C 859.664062 410.222656 852.542969 400.933594 847.027344 392.816406 C 840.921875 383.828125 839.410156 372.554688 842.835938 362.347656 C 843.324219 360.851562 844.113281 359.472656 845.128906 358.273438 C 847.71875 355.253906 853.824219 348.675781 863.789062 341.15625 C 863.789062 341.15625 853.496094 346.828125 845.402344 355.261719 C 856.328125 325.632812 865.105469 280.511719 868.65625 260.726562 C 832.753906 274.304688 779.835938 290.566406 705.238281 305.433594 C 705.238281 305.433594 761.636719 310.183594 802.832031 305.433594 L 800.925781 316.203125 C 800.925781 316.203125 768.007812 319.199219 721.375 320.890625 C 725.417969 338.6875 733.285156 358.40625 740.945312 375.109375 C 730.765625 370.5625 723.390625 369.867188 723.390625 369.867188 C 729.210938 371.246094 734.535156 373.34375 739.351562 375.855469 C 741.011719 376.71875 742.332031 378.113281 743.128906 379.804688 C 745.308594 384.425781 747.4375 388.761719 749.421875 392.695312 C 735.839844 384.980469 724.953125 383.941406 724.953125 383.941406 C 734.523438 386.214844 742.757812 390.425781 749.585938 395.203125 C 750.757812 396.027344 751.691406 397.136719 752.324219 398.414062 C 754.476562 402.722656 756.496094 407.089844 758.382812 411.507812 C 741.578125 399.457031 726.519531 398.019531 726.519531 398.019531 C 740.164062 401.265625 751.09375 408.453125 759.113281 415.589844 C 760.113281 416.484375 760.886719 417.597656 761.371094 418.847656 C 762.769531 422.460938 764.078125 426.097656 765.300781 429.765625 C 746.488281 413.847656 728.082031 412.101562 728.082031 412.101562 C 744.957031 416.105469 757.671875 426.15625 765.875 434.664062 C 766.835938 435.660156 767.550781 436.863281 767.933594 438.195312 C 773.339844 456.714844 776.472656 475.875 777.136719 495.261719 C 779.878906 575.769531 740.183594 628.425781 724.984375 645.554688 C 721.816406 649.117188 716.359375 649.425781 712.820312 646.242188 C 697.433594 632.394531 682.980469 613.527344 671.773438 597.023438 C 659.367188 578.773438 656.292969 555.863281 663.242188 535.128906 C 664.257812 532.089844 665.847656 529.28125 667.925781 526.851562 C 673.179688 520.710938 685.585938 507.355469 705.824219 492.070312 C 705.824219 492.070312 684.921875 503.605469 668.464844 520.726562 C 692.21875 456.355469 710.953125 355.957031 717.070312 321.046875 C 665.886719 322.777344 599.425781 322.859375 541.742188 315.890625 L 533.503906 279.566406 C 533.503906 279.566406 756.199219 313.304688 932.738281 216.359375 L 932.738281 230.335938 C 932.738281 230.335938 915.546875 242.6875 872.066406 259.421875 C 874.175781 267.492188 877.664062 276.144531 881.070312 283.589844 C 876.0625 281.347656 872.433594 281.003906 872.433594 281.003906 C 875.296875 281.683594 877.917969 282.71875 880.292969 283.953125 C 881.101562 284.378906 881.757812 285.066406 882.144531 285.894531 C 883.222656 288.179688 884.269531 290.304688 885.25 292.242188 C 878.558594 288.441406 873.207031 287.929688 873.207031 287.929688 C 877.910156 289.054688 881.964844 291.125 885.332031 293.480469 C 885.90625 293.882812 886.363281 294.433594 886.679688 295.054688 C 887.738281 297.175781 888.730469 299.328125 889.65625 301.5 C 881.390625 295.566406 873.972656 294.859375 873.972656 294.859375 C 880.691406 296.460938 886.070312 299.996094 890.015625 303.511719 C 890.511719 303.949219 890.890625 304.496094 891.125 305.113281 C 891.816406 306.894531 892.464844 308.683594 893.0625 310.488281 C 883.804688 302.660156 874.742188 301.796875 874.742188 301.796875 C 883.046875 303.765625 889.304688 308.710938 893.34375 312.902344 C 893.820312 313.386719 894.164062 313.988281 894.363281 314.636719 C 897.019531 323.753906 898.5625 333.1875 898.882812 342.726562 C 900.238281 382.347656 880.703125 408.273438 873.214844 416.695312 Z M 639.300781 391.691406 C 638.128906 383.566406 633.050781 380.921875 631.601562 380.332031 C 630.617188 379.929688 629.632812 379.527344 628.664062 379.089844 C 589.601562 361.46875 601.84375 329.460938 601.84375 329.460938 C 601.84375 329.460938 605.277344 353.765625 620.878906 366.054688 C 620.878906 366.054688 608.753906 354.023438 605.347656 330.265625 C 657.683594 343.339844 639.300781 391.691406 639.300781 391.691406 Z M 792.867188 191.324219 C 792.867188 191.324219 779.832031 284.089844 723.0625 269.324219 C 732.023438 236.050781 751.441406 221.332031 754.472656 219.207031 C 721.273438 241.707031 719.144531 268.15625 719.144531 268.15625 C 719.144531 268.15625 677.09375 207.828125 792.867188 191.324219 Z M 943.285156 179.878906 C 941.175781 190.269531 932.761719 221.71875 909.046875 215.546875 C 913.511719 198.949219 923.207031 191.601562 924.71875 190.539062 C 908.152344 201.761719 907.09375 214.960938 907.09375 214.960938 C 907.09375 214.960938 887.078125 186.238281 940.035156 177.234375 C 891.570312 138.398438 830.058594 115.175781 763.125 115.175781 C 606.753906 115.175781 479.992188 241.9375 479.992188 398.308594 C 479.992188 554.679688 606.753906 681.441406 763.125 681.441406 C 919.496094 681.441406 1046.257812 554.679688 1046.257812 398.308594 C 1046.257812 310.375 1006.171875 231.808594 943.285156 179.878906 " fill-opacity="1" fill-rule="nonzero"/></g></svg>